Simulation
nRows=28
nColumns=15
endheader
time  TH_x TH_y TH_z SC_y  SC_z  SC_x  AC_y  AC_z  AC_x  GH_y  GH_z  GH_yy  EL_x  PS_y
5.362  0.000000  0.000000  0.000000  -34.91571777272425  8.348115379829974  -2.2749302177635307  51.61121790901033  19.04042813742534  7.643503223697098  8.634248116429434  79.76998094477878  -12.703840737927537  13.542177696785352  120.000000
5.4156200000000005  0.000000  0.000000  0.000000  -34.82013147538973  8.289909598047245  -1.2768507845854222  51.878264859008695  18.516777384116498  7.100778019164093  8.446240940179859  79.73917815618304  -12.701400383416765  13.599696175226374  120.000000
5.46924  0.000000  0.000000  0.000000  -34.42064798180152  8.079983602042052  -0.658182054471879  52.25828921878013  17.880442811706693  6.564572636185567  8.127577094631768  79.60937508289999  -12.161321349873418  13.467936319179433  120.000000
5.52286  0.000000  0.000000  0.000000  -33.71175285649118  7.725306191949873  -0.4703323140737033  52.74544327525532  17.112532566428825  6.068689971032002  7.666027089964823  79.34924650516115  -11.150819701125496  13.204760392764294  120.000000
5.57648  0.000000  0.000000  0.000000  -32.707086835922425  7.243793884758315  -0.7237613707927911  53.31414292563925  16.225384156927273  5.673090154340833  7.051483173530442  78.84670196789368  -9.784868014862502  12.894854157617697  120.000000
5.6301000000000005  0.000000  0.000000  0.000000  -31.434613001482067  6.660316510338678  -1.4022041763067008  53.92191517828905  15.257968927550614  5.446160199194129  6.269812607510013  77.96834213529458  -8.181758075905305  12.616486138852716  120.000000
5.68372  0.000000  0.000000  0.000000  -29.93103736852505  6.0025630578333455  -2.4765269779633226  54.51860271095572  14.267436323360757  5.444454323071164  5.305596922271168  76.61995476754687  -6.427044495489919  12.415946585043585  120.000000
5.73734  0.000000  0.000000  0.000000  -28.24081483283651  5.3010260656024535  -3.899809067374  55.05579747179732  13.326671924859287  5.701283279051132  4.159372450770511  74.75078918799267  -4.566608185183188  12.301268640916982  120.000000
5.79096  0.000000  0.000000  0.000000  -26.420461567634533  4.587146532945937  -5.604436238485579  55.49862544712584  12.509612448423432  6.215774667213557  2.8601206109276873  72.34935668683391  -2.615337207238271  12.25348622651726  120.000000
5.8445800000000006  0.000000  0.000000  0.000000  -24.54338879692276  3.891115192873859  -7.503432419727892  55.830403703533584  11.875454359583637  6.949338799497573  1.4718998518966744  69.43310205467805  -0.5730664446712378  12.24344860825585  120.000000
5.8982  0.000000  0.000000  0.000000  -22.700026742894277  3.240529363312435  -9.497039926841662  56.04858145972028  11.459942230788991  7.8347379959855195  0.09505394676696892  66.03894125152492  1.5600452672536496  12.244798528807507  120.000000
5.95182  0.000000  0.000000  0.000000  -20.991815693631803  2.66044389745955  -11.48279665521273  56.15310230188703  11.278023352283228  8.791193035758376  -1.1442218519085074  62.217384634760634  3.7753384444736064  12.238884648247032  120.000000
6.00544  0.000000  0.000000  0.000000  -19.522950823800176  2.17781708651762  -13.365083455668394  56.13591439545751  11.329303924231338  9.734982876701432  -2.116649873930145  58.03001784303811  6.055135871687985  12.213250768204187  120.000000
6.059060000000001  0.000000  0.000000  0.000000  -18.383872446816177  1.8259976368561888  -15.061161378007583  55.98452666556098  11.600337459753602  10.57882562680301  -2.714145056987593  53.547087730422874  8.37566648350429  12.160099346474226  120.000000
6.11268  0.000000  0.000000  0.000000  -17.624775668946253  1.6271323684340886  -16.49524444979217  55.6934984787176  12.065813935787572  11.252208050612987  -2.8576752806304087  48.84290250571262  10.706010137987713  12.083254928081798  120.000000
6.1663  0.000000  0.000000  0.000000  -17.243458954895278  1.5791496818307795  -17.603375297440966  55.279366452326755  12.692073978519385  11.72073349769984  -2.498965190683883  43.99842002512484  13.004705066370665  12.00317957546379  120.000000
6.21992  0.000000  0.000000  0.000000  -17.200967427385525  1.6630962629161752  -18.351066218548375  54.786868607348275  13.442645010362174  11.978251826166057  -1.6282385493012876  39.111589809656884  15.222353949875625  11.952240836711907  120.000000
6.273540000000001  0.000000  0.000000  0.000000  -17.438987811401194  1.8456334178460077  -18.732053492277174  54.27564993976978  14.2769322571164  12.043439489945962  -0.2774670482718895  34.29664425780155  17.31308731102043  11.967164303260732  120.000000
6.32716  0.000000  0.000000  0.000000  -17.88833831511182  2.084608395252589  -18.767611230000725  53.808572808581154  15.153111687673023  11.951440360765034  1.4835245653270188  29.6714074546367  19.245723312948115  12.083707574838682  120.000000
6.38078  0.000000  0.000000  0.000000  -18.467616253707444  2.3389394803383667  -18.494038336039957  53.448780349128  16.026643816786727  11.735104878243673  3.5575416879872157  25.33998863833029  21.008453397201652  12.333546034658516  120.000000
6.4344  0.000000  0.000000  0.000000  -19.086607765841027  2.574150859973837  -17.94681621081819  53.24590973530665  16.853847193248157  11.423267629143405  5.826254589572548  21.375575027053387  22.60887627850233  12.74067362468078  120.000000
6.488020000000001  0.000000  0.000000  0.000000  -19.664569723005293  2.76760455800181  -17.165426125431445  53.21483945299169  17.60642359396389  11.05416871715077  8.149831608763973  17.812036798256585  24.072418589060238  13.312616778189897  120.000000
6.54164  0.000000  0.000000  0.000000  -20.149504008418596  2.9138384607373435  -16.188373095599214  53.33061879979964  18.27183366139418  10.669482376290505  10.38277144820966  14.649687023841402  25.424645725921135  14.026215361787163  120.000000
6.59526  0.000000  0.000000  0.000000  -20.526429103121465  3.031876506333214  -15.05346384877751  53.55835314910864  18.848161414297202  10.29054139912911  12.476094492772395  11.872668709997123  26.596099842437784  14.822264606985721  120.000000
6.64888  0.000000  0.000000  0.000000  -20.810658301566573  3.149755104269981  -13.80256597709977  53.86330983084183  19.332703070581626  9.917071999636438  14.581198983938357  9.455268633559298  27.33383301087553  15.614676381985403  120.000000
6.702500000000001  0.000000  0.000000  0.000000  -21.042058503977653  3.283210226076003  -12.480856501816929  54.195541090534036  19.712577496636165  9.549877235871316  17.078458958319537  7.3596281482715895  27.18601920865668  16.31340415893128  120.000000
6.75612  0.000000  0.000000  0.000000  -21.263690599942002  3.4341543191811525  -11.134768510051197  54.50075516213271  19.97584257891397  9.195006699960558  20.611556715029437  5.54682162946241  25.47797806253539  16.84995169760882  120.000000
6.80974  0.000000  0.000000  0.000000  -21.50076566231332  3.601979036816016  -9.799751456782026  54.73961142860766  20.123319775173066  8.855773702770524  26.248061557530878  3.992215251272945  21.167228034860152  17.197148369253153  120.000000
